<svg id="Capa_1" data-name="Capa 1" xmlns="http://www.w3.org/2000/svg" xmlns:xlink="http://www.w3.org/1999/xlink" viewBox="0 0 382.93 135.17"><defs><style>.cls-1{fill:url(#Degradado_sin_nombre_42);}.cls-2{fill:#2872b2;}.cls-3{fill:url(#Degradado_sin_nombre_48);}.cls-4{fill:url(#Degradado_sin_nombre_15);}.cls-5{fill:url(#Degradado_sin_nombre_15-2);}.cls-6{fill:url(#Degradado_sin_nombre_15-3);}.cls-7{fill:url(#Degradado_sin_nombre_15-4);}.cls-8{fill:url(#Degradado_sin_nombre_15-5);}.cls-9{fill:url(#Degradado_sin_nombre_15-6);}.cls-10{fill:#bfc0c6;}.cls-11{fill:url(#Degradado_sin_nombre_15-7);}.cls-12{fill:url(#Degradado_sin_nombre_15-8);}.cls-13{fill:url(#Degradado_sin_nombre_15-9);}.cls-14{fill:url(#Degradado_sin_nombre_15-10);}.cls-15{fill:#1d1d1b;}</style><linearGradient id="Degradado_sin_nombre_42" x1="565.96" y1="405.69" x2="565.96" y2="469" gradientUnits="userSpaceOnUse"><stop offset="0" stop-color="#00509c"/><stop offset="0.04" stop-color="#0656a1"/><stop offset="0.31" stop-color="#2678ba"/><stop offset="0.57" stop-color="#3e91cc"/><stop offset="0.81" stop-color="#4ca0d7"/><stop offset="1" stop-color="#51a5db"/></linearGradient><linearGradient id="Degradado_sin_nombre_48" x1="582.75" y1="517.8" x2="582.75" y2="404.82" gradientUnits="userSpaceOnUse"><stop offset="0" stop-color="#00612b"/><stop offset="0.01" stop-color="#05642a"/><stop offset="0.07" stop-color="#267526"/><stop offset="0.14" stop-color="#428422"/><stop offset="0.22" stop-color="#59901f"/><stop offset="0.32" stop-color="#6b9a1d"/><stop offset="0.43" stop-color="#78a01b"/><stop offset="0.57" stop-color="#7fa41a"/><stop offset="0.92" stop-color="#81a51a"/></linearGradient><linearGradient id="Degradado_sin_nombre_15" x1="675.29" y1="435.79" x2="693.33" y2="435.79" gradientTransform="translate(114.38 -74.02) rotate(3.94)" gradientUnits="userSpaceOnUse"><stop offset="0" stop-color="#00612b"/><stop offset="0.11" stop-color="#146c28"/><stop offset="0.4" stop-color="#438422"/><stop offset="0.65" stop-color="#65961e"/><stop offset="0.86" stop-color="#79a11b"/><stop offset="1" stop-color="#81a51a"/></linearGradient><linearGradient id="Degradado_sin_nombre_15-2" x1="670.4" y1="436.97" x2="677.03" y2="436.97" xlink:href="#Degradado_sin_nombre_15"/><linearGradient id="Degradado_sin_nombre_15-3" x1="638.62" y1="449.24" x2="650.89" y2="449.24" xlink:href="#Degradado_sin_nombre_15"/><linearGradient id="Degradado_sin_nombre_15-4" x1="649.95" y1="450.58" x2="654.95" y2="450.58" xlink:href="#Degradado_sin_nombre_15"/><linearGradient id="Degradado_sin_nombre_15-5" x1="603.26" y1="420.52" x2="615.53" y2="420.52" xlink:href="#Degradado_sin_nombre_15"/><linearGradient id="Degradado_sin_nombre_15-6" x1="614.58" y1="421.85" x2="619.58" y2="421.85" xlink:href="#Degradado_sin_nombre_15"/><linearGradient id="Degradado_sin_nombre_15-7" x1="631.02" y1="440.42" x2="648.49" y2="440.42" gradientTransform="matrix(1, 0, 0, 1, 0, 0)" xlink:href="#Degradado_sin_nombre_15"/><linearGradient id="Degradado_sin_nombre_15-8" x1="626.47" y1="449.01" x2="634.01" y2="449.01" gradientTransform="matrix(1, 0, 0, 1, 0, 0)" xlink:href="#Degradado_sin_nombre_15"/><linearGradient id="Degradado_sin_nombre_15-9" x1="693.56" y1="441.57" x2="714.73" y2="441.57" gradientTransform="matrix(1, 0, 0, 1, 0, 0)" xlink:href="#Degradado_sin_nombre_15"/><linearGradient id="Degradado_sin_nombre_15-10" x1="712.69" y1="437.24" x2="721.55" y2="437.24" gradientTransform="matrix(1, 0, 0, 1, 0, 0)" xlink:href="#Degradado_sin_nombre_15"/></defs><title>logo_vitis</title><path class="cls-1" d="M565.83,469s11.61-25,42.65-48a56,56,0,0,0-85,9.56C557.13,443,565.83,469,565.83,469Z" transform="translate(-514 -382.64)"/><path class="cls-2" d="M646.57,456.61V506H631.23V456.66Z" transform="translate(-514 -382.64)"/><path class="cls-2" d="M708.3,456.61l0,.19v49.12l-15.35,0V469.71H677v15.36c0,4.38,2.74,6.55,8.18,6.55a9.54,9.54,0,0,0,4-.63l-4.43,15.31a12.31,12.31,0,0,1-2.36.19c-4.67,0-8.47-.72-11.45-2.22a15.16,15.16,0,0,1-7-6.69c-1.59-2.94-2.36-6.69-2.36-11.32V469.71H649.51l3.42-13.19h8.76v-19l15.35.1v19Z" transform="translate(-514 -382.64)"/><path class="cls-2" d="M718.5,490.37a15.24,15.24,0,0,0,11.16,4.58c4.57,0,6.88-1.35,6.88-4,0-1.4-1.25-2.46-3.8-3.13-2.31-.53-5.15-1.25-8.56-2.17a16.42,16.42,0,0,1-8-4.62c-2.17-2.17-3.22-5.59-3.22-10.21a14.84,14.84,0,0,1,2.65-9,16.22,16.22,0,0,1,7-5.39,24.59,24.59,0,0,1,9.57-1.78,24.32,24.32,0,0,1,6,.82A30.32,30.32,0,0,1,744,458a30,30,0,0,1,5,3.56l-8.47,8.43a13,13,0,0,0-8.08-2.79c-3.51,0-5.24,1-5.24,2.94,0,1.73,1.3,3,3.9,3.71s5.58,1.44,8.61,2.17a16.53,16.53,0,0,1,7.94,4.43c2.16,2.17,3.22,5.59,3.22,10.3a14.78,14.78,0,0,1-2.79,9.05,16.37,16.37,0,0,1-7.46,5.73,25.35,25.35,0,0,1-9.67,2,41.65,41.65,0,0,1-7.55-.67,23.15,23.15,0,0,1-6.3-2.12,37.69,37.69,0,0,1-6.35-4Z" transform="translate(-514 -382.64)"/><path class="cls-3" d="M651.49,404.82c-49.4,3-74.9,69.67-82,99.44-2,6.28-3,10.12-3,10.12-1-7.94-20.18-66.35-43.43-83.25A56,56,0,1,0,626,461.75a57.26,57.26,0,0,0-6.94-27C623.37,424,636.39,410.29,651.49,404.82Z" transform="translate(-514 -382.64)"/><path class="cls-4" d="M764.33,413.42c-5.5-1-5.61-4.83-5.61-4.83a4.47,4.47,0,0,1,3.3,1.08c-.6-1.51-1.36-2.16-3.4-2.79-1.44-1.88,1.29-5.29,4.69-5.27s4.52,2.25,6.1,4.4a7.51,7.51,0,0,0,6.65,3.26S769.83,414.42,764.33,413.42Z" transform="translate(-514 -382.64)"/><path class="cls-5" d="M759.75,408h0a5,5,0,0,0-3.21-.24,4,4,0,0,0-1.4.68,3.73,3.73,0,0,0-.56.5l-1.48.09a.46.46,0,0,1,.08-.14l.05-.06a6.44,6.44,0,0,1,1.47-1.1,4.73,4.73,0,0,1,1.73-.55,5.36,5.36,0,0,1,3.37.73,0,0,0,0,1,0,.08Z" transform="translate(-514 -382.64)"/><path class="cls-6" d="M730.06,414.64c3.59,2.05,2.72,4.75,2.72,4.75a3.31,3.31,0,0,1-2-1.57,3.18,3.18,0,0,0,1.68,2.78c.54,1.67-2.2,3.37-4.56,2.52s-2.6-2.68-3.17-4.57a5.55,5.55,0,0,0-3.84-3.91S726.48,412.59,730.06,414.64Z" transform="translate(-514 -382.64)"/><path class="cls-7" d="M731.93,419.52h0a3.72,3.72,0,0,0,2.18,1,3,3,0,0,0,1.15-.13,2.75,2.75,0,0,0,.51-.21l1.05.3-.09.08,0,0a4.76,4.76,0,0,1-1.29.4,3.5,3.5,0,0,1-1.34,0,4,4,0,0,1-2.17-1.34,0,0,0,0,1,0,0A0,0,0,0,1,731.88,419.57Z" transform="translate(-514 -382.64)"/><path class="cls-8" d="M696.76,383.55c3.59,2.05,2.72,4.75,2.72,4.75a3.31,3.31,0,0,1-2-1.57,3.18,3.18,0,0,0,1.68,2.78c.54,1.67-2.2,3.37-4.56,2.52s-2.6-2.68-3.17-4.57a5.55,5.55,0,0,0-3.84-3.91S693.17,381.5,696.76,383.55Z" transform="translate(-514 -382.64)"/><path class="cls-9" d="M698.63,388.43h0a3.72,3.72,0,0,0,2.18,1,3,3,0,0,0,1.15-.13,2.75,2.75,0,0,0,.51-.21l1.05.3-.09.08,0,0a4.76,4.76,0,0,1-1.29.4,3.5,3.5,0,0,1-1.34,0,4,4,0,0,1-2.17-1.34,0,0,0,0,1,0,0A0,0,0,0,1,698.58,388.48Z" transform="translate(-514 -382.64)"/><path class="cls-10" d="M751,415a27.6,27.6,0,0,0-8.49-4.62,57.31,57.31,0,0,0-19.08-2.63,112.6,112.6,0,0,0-19.13,2c-3.16.56-6.29,1.26-9.39,2.07-1.51.39-3,.81-4.51,1.26a36.31,36.31,0,0,0-16-8.45,38.37,38.37,0,0,0-19.21,0,48.53,48.53,0,0,1,18.39,2.74,43,43,0,0,1,8.21,3.94,38.62,38.62,0,0,1,4.3,3.2l-.41.15c-.77.29-1.54.59-2.35,1-.44.21-.8.43-1.15.64s-.71.45-1.06.68a12.48,12.48,0,0,0-3.72,3.8,5.48,5.48,0,0,0-.59,1.47,3.22,3.22,0,0,0,.08,1.8,3.64,3.64,0,0,0,2.26,2,16.6,16.6,0,0,0,4.93.85,28.78,28.78,0,0,0,4.94-.18,9.28,9.28,0,0,0,5.09-2,4.64,4.64,0,0,0,1.52-3.18,6.26,6.26,0,0,0-.78-3.24,12.86,12.86,0,0,0-1.51-2.21l-.12-.14c3.86-1.17,7.82-2.14,11.76-3a123.27,123.27,0,0,1,18.57-2.58A59.11,59.11,0,0,1,742,411.84a27.32,27.32,0,0,1,8.43,3.82,19.81,19.81,0,0,1,6.2,7A19.33,19.33,0,0,0,751,415ZM690,418.63c.23.29.44.59.67.88a8.71,8.71,0,0,1,.6.77,4.11,4.11,0,0,1,.62,1.25,1.46,1.46,0,0,1-.17,1.14,6.34,6.34,0,0,1-3.22,2.32,12.12,12.12,0,0,1-4.49.79,8.43,8.43,0,0,1-4.32-1.06c-.59-.37-1-.91-.94-1.27a2,2,0,0,1,.74-1.16A21.56,21.56,0,0,1,683,420l1-.55c.34-.19.66-.38.93-.51.61-.31,1.32-.6,2-.88s1.31-.49,2-.73C689.3,417.73,689.68,418.16,690,418.63Z" transform="translate(-514 -382.64)"/><path class="cls-10" d="M664.72,409.8a22.06,22.06,0,0,0-8.09,0,23.84,23.84,0,0,0-7.62,2.63,19.8,19.8,0,0,0-6.18,5,52.21,52.21,0,0,1,7.08-2.9,41.22,41.22,0,0,1,7.2-1.67,44.94,44.94,0,0,1,7.34-.42c1.25,0,2.48.09,3.76.13.64,0,1.27.1,1.92.15s1.31.09,2,.09A19.4,19.4,0,0,0,664.72,409.8Z" transform="translate(-514 -382.64)"/><path class="cls-10" d="M694.25,429.61a12.38,12.38,0,0,1-3.61,1.71,23.9,23.9,0,0,1-8,.74,26.56,26.56,0,0,1-7.86-1.33,3.3,3.3,0,0,1-2.27-2.14,6.54,6.54,0,0,1,.86-3.86,5.6,5.6,0,0,0-2.52,3.91A4.19,4.19,0,0,0,671,430a5.54,5.54,0,0,0,.23.68c.11.2.24.4.37.59a4.59,4.59,0,0,0,.91,1,5.47,5.47,0,0,0,1,.75,5.66,5.66,0,0,0,1.09.58l1.12.46c.74.24,1.49.42,2.25.61s1.5.23,2.25.34,1.51.09,2.26.14a19.3,19.3,0,0,0,9-1.69l1-.56c.33-.21.65-.45,1-.67a8.68,8.68,0,0,0,.9-.75,6,6,0,0,0,.81-.84,7.76,7.76,0,0,0,1.92-4.07A9.68,9.68,0,0,1,694.25,429.61Z" transform="translate(-514 -382.64)"/><path class="cls-10" d="M681,400c1.57.28,3.14.57,4.71.89s3.21.66,4.83.91a83.42,83.42,0,0,0,9.8,1.09,89.55,89.55,0,0,0,19.63-1,82.45,82.45,0,0,0,18.85-5.34,63.18,63.18,0,0,0,8.71-4.46,35.83,35.83,0,0,0,7.63-6.1.25.25,0,0,0,0-.34.25.25,0,0,0-.35,0,37.43,37.43,0,0,1-7.91,5.34,69.54,69.54,0,0,1-8.77,3.79A87.39,87.39,0,0,1,719.59,399a92.48,92.48,0,0,1-19,.31c-3.15-.28-6.29-.68-9.4-1.27-1.57-.27-3.08-.63-4.66-1s-3.18-.72-4.77-1.06c-3.2-.65-6.42-1.17-9.67-1.6a94,94,0,0,0-9.82-.82,83.61,83.61,0,0,0-9.9.27,65.16,65.16,0,0,0-9.8,1.7,53.13,53.13,0,0,0-17.94,8.32A59.45,59.45,0,0,0,611,417.77a76.63,76.63,0,0,1,15-11.93,59.58,59.58,0,0,1,8.49-4.12,60.45,60.45,0,0,1,9-2.65C655.71,396.51,668.52,397.69,681,400Z" transform="translate(-514 -382.64)"/><path class="cls-10" d="M762.48,391.65a33.46,33.46,0,0,0-8.83,3.71c-2.69,1.54-5.27,3.11-8,4.4a22.06,22.06,0,0,1-8.67,2.33,14.54,14.54,0,0,0,9.54-.05,41.66,41.66,0,0,0,8.63-4,69.68,69.68,0,0,1,8-4.1,19,19,0,0,1,8.78-1.52C769.18,390.89,765.61,390.88,762.48,391.65Z" transform="translate(-514 -382.64)"/><path class="cls-11" d="M633.2,436.75c-4.37,6.21-.83,10-.83,10a6.08,6.08,0,0,0,2.16-4.19c.85,2,.74,3.39-.63,5.93.4,3.19,6.27,3.89,9.54.63s2.23-6.48,1.71-10.06a10.21,10.21,0,0,1,3.34-9.49S637.57,430.54,633.2,436.75Z" transform="translate(-514 -382.64)"/><path class="cls-12" d="M633.89,446.32h0a6.83,6.83,0,0,1-2.88,3.29,5.47,5.47,0,0,1-2,.67,5.05,5.05,0,0,1-1,.05q-.75.67-1.51,1.32a.63.63,0,0,0,.21.06h.1a8.74,8.74,0,0,0,2.46-.34,6.43,6.43,0,0,0,2.2-1.11,7.29,7.29,0,0,0,2.56-3.92.06.06,0,0,0-.12,0Z" transform="translate(-514 -382.64)"/><path class="cls-13" d="M710.35,448.16c6.14-4.45,4-9.21,4-9.21a6.08,6.08,0,0,0-3.4,3.26c-.15-2.19.39-3.45,2.52-5.41.65-3.15-4.67-5.72-8.82-3.69s-4.21,5.4-4.88,9a10.2,10.2,0,0,1-6.23,7.9S704.21,452.61,710.35,448.16Z" transform="translate(-514 -382.64)"/><path class="cls-14" d="M712.8,438.88h0a6.83,6.83,0,0,1,3.79-2.18,5.46,5.46,0,0,1,2.12,0,5.06,5.06,0,0,1,1,.28l1.86-.76a.63.63,0,0,0-.18-.13l-.1,0a8.74,8.74,0,0,0-2.44-.48,6.42,6.42,0,0,0-2.44.34,7.28,7.28,0,0,0-3.69,2.87.06.06,0,0,0,.1.08Z" transform="translate(-514 -382.64)"/><path class="cls-15" d="M783.1,456.62a9.48,9.48,0,0,1,6.78,3,10.48,10.48,0,0,1,2.9,7.21,10.15,10.15,0,0,1-5.16,9,9.21,9.21,0,0,1-4.32,1.18h-.57a9.57,9.57,0,0,1-6.57-3.05v10.26q0,.94-1.41,1.26-1,0-1.34-1.49V467.46q0-7.71,6.94-10.4A13.35,13.35,0,0,1,783.1,456.62Zm-6.86,10V467a7,7,0,0,0,3.74,6.31,6,6,0,0,0,2.9.74h.42q4,0,6.15-4.38A7.91,7.91,0,0,0,790,467v-.38a7,7,0,0,0-3-5.72,6.63,6.63,0,0,0-4-1.26q-4.39,0-6.42,4.84A7.43,7.43,0,0,0,776.24,466.58Z" transform="translate(-514 -382.64)"/><path class="cls-15" d="M805.26,456.56q5.54,0,8.77,5.7a12,12,0,0,1,1,4.8v8.7q0,1.1-1.36,1.35h-.08q-.92,0-1.36-1.12v-.08l.08-1.87V474a9.49,9.49,0,0,1-6.78,3.15H805q-5,0-8.29-5.24a11.78,11.78,0,0,1-1.2-5.1q0-5.72,5.35-9.08A10,10,0,0,1,805.26,456.56Zm-7,10.12v.22a7.25,7.25,0,0,0,4.28,6.75,6.84,6.84,0,0,0,2.43.52h.55q3.55,0,5.87-3.74a7.86,7.86,0,0,0,.84-3.37v-.3a7.22,7.22,0,0,0-4-6.61,6.82,6.82,0,0,0-2.92-.66h-.08q-4.32,0-6.5,4.72A9.26,9.26,0,0,0,798.27,466.68Z" transform="translate(-514 -382.64)"/><path class="cls-15" d="M820.91,456.4q1.38.36,1.38,1.29v1.67a9.74,9.74,0,0,1,6.74-3,10,10,0,0,1,4.11,1,1.83,1.83,0,0,1,.57,1.21v.08q-.23,1.43-1.36,1.43h-.08a10.32,10.32,0,0,0-3-.66h-.42q-4.22,0-6.19,4.6a8.58,8.58,0,0,0-.42,2.79v8.92q0,1.13-1.38,1.37h-.08q-1.09,0-1.36-1.51V458.15Q819.65,456.4,820.91,456.4Z" transform="translate(-514 -382.64)"/><path class="cls-15" d="M845.84,456.56q5.54,0,8.77,5.7a12,12,0,0,1,1,4.8v8.7q0,1.1-1.36,1.35h-.08q-.92,0-1.36-1.12v-.08l.08-1.87V474a9.49,9.49,0,0,1-6.78,3.15h-.55q-5,0-8.29-5.24a11.78,11.78,0,0,1-1.2-5.1q0-5.72,5.35-9.08A10,10,0,0,1,845.84,456.56Zm-7,10.12v.22a7.25,7.25,0,0,0,4.28,6.75,6.84,6.84,0,0,0,2.43.52h.55q3.55,0,5.87-3.74a7.86,7.86,0,0,0,.84-3.37v-.3a7.22,7.22,0,0,0-4-6.61,6.82,6.82,0,0,0-2.92-.66h-.08q-4.32,0-6.5,4.72A9.26,9.26,0,0,0,838.85,466.68Z" transform="translate(-514 -382.64)"/><path class="cls-15" d="M878.25,456.52q5.66,0,8.79,5.64a10.87,10.87,0,0,1,1.07,4.8v.38q-.25,1.51-1.36,1.51H871.67a7.41,7.41,0,0,0,3.63,4.58,8.26,8.26,0,0,0,3.08.66,8.37,8.37,0,0,0,3.8-1.12h.42q1.28.26,1.28,1.37v.22q0,1.85-5.14,2.55h-.5q-5.27,0-8.44-5.18a10.92,10.92,0,0,1-1.28-5.12,10.31,10.31,0,0,1,5.08-9A10.11,10.11,0,0,1,878.25,456.52Zm-6.8,9.4h13.74a7.67,7.67,0,0,0-1.72-4,6.75,6.75,0,0,0-4.64-2.33H878q-3.44,0-5.66,3.53A7.88,7.88,0,0,0,871.45,465.92Z" transform="translate(-514 -382.64)"/><path class="cls-15" d="M892.62,448.45h.29q1.3.28,1.3,1.2v24.5h1.51q.94,0,1.22,1.45v.06q-.23,1.45-1.37,1.45h-2.79q-1.11,0-1.37-1.51V450.09Q891.56,448.45,892.62,448.45Z" transform="translate(-514 -382.64)"/><path class="cls-15" d="M774.91,489.16q1.34.36,1.34,1.24v.74a7.64,7.64,0,0,1,5.06-2q3.63,0,6.38,3.53,1.13-2.19,4.62-3.31l1.6-.22q4.39,0,7,4.42a8.55,8.55,0,0,1,.84,3.54v11q0,1-1.34,1.25h-.06Q799,509.12,799,508V497.27a5,5,0,0,0-3.65-5l-1-.14h-.71q-2.9,0-4.43,3.54A5.25,5.25,0,0,0,789,497v10.92q-.25,1.47-1.32,1.47h-.08q-1.34-.24-1.34-1.33V499q0-3.78-1-4.72a4.63,4.63,0,0,0-3.94-2.13h-.21q-3.34,0-4.7,3.76a10.8,10.8,0,0,0-.21,2.37V508q0,1.09-1.34,1.33h-.06q-1.07,0-1.34-1.47V490.84Q773.66,489.16,774.91,489.16Z" transform="translate(-514 -382.64)"/><path class="cls-15" d="M807.06,488.73q1.36.36,1.36,1.29v8.05q0,5.16,2.79,6.93a6.17,6.17,0,0,0,4,1.43q4.16,0,6.29-4.52a10.16,10.16,0,0,0,.44-2.93v-8.74q.29-1.51,1.43-1.51,1.36.32,1.36,1.43v17.91q0,1-1.36,1.29h-.08q-1.36-.26-1.36-1.43v-1.43h-.08a9.18,9.18,0,0,1-6.44,2.85h-.5q-4.45,0-7.74-4.6a11.47,11.47,0,0,1-1.51-6.08v-8.21Q805.8,488.74,807.06,488.73Z" transform="translate(-514 -382.64)"/><path class="cls-15" d="M829.91,488.81q1.36.36,1.36,1.29v1.65a9.66,9.66,0,0,1,6.76-2.93,9.32,9.32,0,0,1,7.15,3.54,10,10,0,0,1,2.27,6.21v9.54q0,1-1.36,1.27H846q-1.36-.26-1.36-1.43v-8.39q0-5.64-4.62-7.43a7.9,7.9,0,0,0-2-.3h-.21q-3.88,0-6,4.22a11.15,11.15,0,0,0-.55,4.12V508q0,1.1-1.36,1.35h-.08q-1.09,0-1.36-1.51V490.54Q828.65,488.82,829.91,488.81Z" transform="translate(-514 -382.64)"/><path class="cls-15" d="M868.62,480.6h.29q1.3.28,1.3,1.23v15l.08,2.57a10.86,10.86,0,0,1-2.31,6.23,9.65,9.65,0,0,1-7.36,3.71H860q-4,0-7.43-3.94a11.46,11.46,0,0,1-2.1-6.47,10.55,10.55,0,0,1,4.26-8.5,9.74,9.74,0,0,1,5.64-1.89,10.19,10.19,0,0,1,7.07,3.11v-8.58l-.08-1.21Q867.8,480.6,868.62,480.6Zm-15.3,18.13v.38q0,4.64,4.62,6.91a7.67,7.67,0,0,0,2.23.38h.44q4.3,0,6.5-4.86a10.17,10.17,0,0,0,.36-2.27v-.46q0-4.62-4.7-6.91a9.36,9.36,0,0,0-2.24-.38h-.29q-4.3,0-6.5,4.78A7.91,7.91,0,0,0,853.31,498.74Z" transform="translate(-514 -382.64)"/><path class="cls-15" d="M883.23,488.92a9.54,9.54,0,0,1,6.82,3,10.51,10.51,0,0,1,2.9,7.23,10.21,10.21,0,0,1-5.18,9,9.23,9.23,0,0,1-4.34,1.19h-.57q-3.92,0-7.3-3.88a11.24,11.24,0,0,1-2.06-6.35,10.34,10.34,0,0,1,4.18-8.35A9.55,9.55,0,0,1,883.23,488.92Zm-6.88,10v.36a7,7,0,0,0,3.76,6.35,6,6,0,0,0,2.9.74h.42q4,0,6.17-4.4a8,8,0,0,0,.5-2.69v-.36a7,7,0,0,0-3-5.74,6.58,6.58,0,0,0-4-1.26q-4.41,0-6.46,4.84A7.83,7.83,0,0,0,876.36,498.92Z" transform="translate(-514 -382.64)"/></svg>